# xmcd
#
# Track frame offsets:
#	150
#	14766
#	30249
#	48067
#	62714
#	76857
#	90999
#	104104
#	117341
#	129073
#	142360
#	159953
#	176360
#	191419
#
# Disc length: 2758 seconds
#
# Revision: 4
# Processed by: cddbd v1.5.2PL0 Copyright (c) Steve Scherf et al.
# Submitted via: EZCDAudioConverter 8.2.2.1
#
DISCID=ab0ac40e
DTITLE=LEANDRO and LEONARDO - BAILÃO DO LEANDRO and LEONARDO [CD 857387288-2) CHAN
DTITLE=TECLER
DYEAR=2001
DGENRE=SERTANEJO
TTITLE0=ANARRIÊ (BY GILMAR SINISTRO)
TTITLE1=PIMBA PIMBA (BY GILMAR SINISTRO)
TTITLE2=FESTA DE RODEIO (BY GILMAR SINISTRO)
TTITLE3=MEXE MEXE (BY GILMAR SINISTRO)
TTITLE4=AMOR VAMPIRO (BY GILMAR SINISTRO)
TTITLE5=PAZ NA CAMA (BY GILMAR SINISTRO)
TTITLE6=MAIS UMA NOITE SEM VOCÊ (BY GILMAR SINISTRO)
TTITLE7=GOSTO DELA (BY GILMAR SINISTRO)
TTITLE8=VOCÊ É DOIDA DEMAIS (BY GILMAR SINISTRO)
TTITLE9=ENTRE TAPAS E BEIJOS (BY GILMAR SINISTRO)
TTITLE10=RUMO À GOIÂNIA (BY GILMAR SINISTRO)
TTITLE11=VIÚVA NOVA (BY GILMAR SINISTRO)
TTITLE12=CERVEJA (BY GILMAR SINISTRO)
TTITLE13=SEGURA PEÃO (BY GILMAR SINISTRO)
EXTD=
EXTT0=
EXTT1=
EXTT2=
EXTT3=
EXTT4=
EXTT5=
EXTT6=
EXTT7=
EXTT8=
EXTT9=
EXTT10=
EXTT11=
EXTT12=
EXTT13=
PLAYORDER=
